<?xml version="1.0" encoding="UTF-8" standalone="no"?>
<!-- Created with Inkscape (http://www.inkscape.org/) -->

<svg
   width="100"
   height="100"
   viewBox="0 0 100 100"
   version="1.1"
   id="svg1"
   xmlns:xlink="http://www.w3.org/1999/xlink"
   xmlns="http://www.w3.org/2000/svg"
   xmlns:svg="http://www.w3.org/2000/svg">
  <defs
     id="defs1">
    <linearGradient
       id="linearGradient39">
      <stop
         style="stop-color:#969696;stop-opacity:1;"
         offset="0"
         id="stop39" />
      <stop
         style="stop-color:#e6e6e6;stop-opacity:1;"
         offset="1"
         id="stop40" />
    </linearGradient>
    <linearGradient
       id="linearGradient37">
      <stop
         style="stop-color:#646464;stop-opacity:1;"
         offset="0"
         id="stop37" />
      <stop
         style="stop-color:#969696;stop-opacity:1;"
         offset="1"
         id="stop38" />
    </linearGradient>
    <linearGradient
       id="linearGradient36">
      <stop
         style="stop-color:#4d4dff;stop-opacity:1;"
         offset="0"
         id="stop35" />
      <stop
         style="stop-color:#ff4d4d;stop-opacity:1;"
         offset="1"
         id="stop36" />
    </linearGradient>
    <linearGradient
       id="linearGradient32">
      <stop
         style="stop-color:#294dff;stop-opacity:1;"
         offset="0"
         id="stop32" />
      <stop
         style="stop-color:#ff4d4d;stop-opacity:1;"
         offset="1"
         id="stop33" />
    </linearGradient>
    <linearGradient
       xlink:href="#linearGradient32"
       id="linearGradient33"
       x1="32.898094"
       y1="4.9347138"
       x2="73.721634"
       y2="95.554001"
       gradientUnits="userSpaceOnUse"
       gradientTransform="matrix(1,0,0,1.0377878,0,-0.3032465)" />
    <linearGradient
       xlink:href="#linearGradient36"
       id="linearGradient34"
       x1="32.898094"
       y1="4.9347138"
       x2="73.721634"
       y2="95.554001"
       gradientUnits="userSpaceOnUse"
       gradientTransform="matrix(1,0,0,1.0377878,0,-0.3032465)" />
    <linearGradient
       xlink:href="#linearGradient37"
       id="linearGradient38"
       x1="5.9516454"
       y1="58.443645"
       x2="88.806587"
       y2="3.7768574"
       gradientUnits="userSpaceOnUse" />
    <linearGradient
       xlink:href="#linearGradient39"
       id="linearGradient40"
       x1="12.794356"
       y1="95.799065"
       x2="97.279404"
       y2="42.083916"
       gradientUnits="userSpaceOnUse" />
  </defs>
  <path
     id="path1"
     style="fill:url(#linearGradient38);stroke-width:1.29538;stroke-linecap:round;stroke-linejoin:round"
     d="M 10,5 C 7.23,5 5,7.7875 5,11.25 v 37.5 C 5,52.2125 7.23,55 10,55 h 3.109375 v -3.75 c 0,-4.273893 2.852823,-8.140625 6.890625,-8.140625 H 85 V 11.25 C 85,7.7875 82.77,5 80,5 Z" />
  <path
     id="path7"
     style="display:inline;fill:url(#linearGradient33);fill-opacity:1;stroke-width:4.57097;stroke-linecap:round;stroke-linejoin:round"
     d="M 38.943359,8.0253906 C 38.750424,8.0383796 38.628906,8.3578822 38.628906,8.96875 v 29.445312 c 0,2.177986 0.240474,2.420085 0.958985,3.894532 L 41.005859,45 H 58.707031 L 39.587891,8.7128906 c -0.249183,-0.4729152 -0.474295,-0.698961 -0.644532,-0.6875 z" />
  <path
     id="rect1-2"
     style="display:inline;fill:url(#linearGradient40);fill-opacity:1;stroke-width:1.29538;stroke-linecap:round;stroke-linejoin:round"
     d="m 20,45 c -2.77,0 -5,2.7875 -5,6.25 v 37.5 c 0,3.4625 2.23,6.25 5,6.25 h 70 c 2.77,0 5,-2.7875 5,-6.25 V 51.25 C 95,47.7875 92.77,45 90,45 H 58.427734 40.726562 Z" />
  <path
     id="rect2-1"
     style="display:inline;fill:url(#linearGradient34);fill-opacity:1;stroke:none;stroke-width:3.16612;stroke-linecap:round;stroke-linejoin:round;stroke-dasharray:none"
     d="m 62.057507,51.355973 v 33.598379 l 3.47656,6.597651 c 0.53159,1.008885 0.96094,0.894481 0.96094,-0.255388 V 61.851414 c 0,-1.149869 -0.42935,-2.888905 -0.96094,-3.89779 z" />
</svg>
